<svg width="47" height="48" viewBox="0 0 47 48" fill="none" xmlns="http://www.w3.org/2000/svg">
<path d="M23.4707 0C19.422 0 15.608 1.14295 12.2634 3.00777L31.1573 17.0841L35.5581 3.54917C32.0375 1.38358 27.8714 0 23.4707 0ZM7.33458 6.79757C2.87516 11.1889 0 17.2646 0 24.1223C0 25.6262 0.117353 27.0098 0.35206 28.4535L18.4831 15.099L7.27591 6.79757H7.33458ZM40.3695 7.57959L33.211 30.1379H46.0612C46.5306 28.2129 47 26.2278 47 24.1223C47 17.6857 44.4182 11.9108 40.3695 7.57959ZM12.6742 26.9496L2.40574 34.4691C5.63296 41.2666 11.794 46.44 19.3046 47.8236L12.6742 26.9496ZM21.8277 36.1534L25.5243 48.0041C33.3283 47.2822 39.9588 42.7104 43.6554 36.1534H21.8277Z" fill="white"/>
</svg>
