<svg width="54" height="48" viewBox="0 0 54 48" fill="none" xmlns="http://www.w3.org/2000/svg">
<path d="M36.5854 0C33.1929 0 30.2661 2.09738 28.4701 5.27341C31.4634 8.50936 33.2594 12.9438 33.2594 18.0375C33.2594 19.7753 33.0599 21.3333 32.6608 22.8914C33.9246 23.5506 35.1885 24.03 36.5854 24.03C42.1065 24.03 46.5632 18.6367 46.5632 12.0449C46.5632 5.45318 42.1065 0.0599251 36.5854 0.0599251V0ZM16.6297 5.99251C11.1087 5.99251 6.65189 11.3858 6.65189 17.9775C6.65189 24.5693 11.1087 29.9625 16.6297 29.9625C22.1508 29.9625 26.6076 24.5693 26.6076 17.9775C26.6076 11.3858 22.1508 5.99251 16.6297 5.99251ZM48.2262 24.9288C45.3659 27.985 41.4413 29.8427 36.9845 29.9625C38.7805 32.2397 39.9113 34.9963 39.9113 37.9925V41.9476H53.2151V32C53.2151 28.8839 51.153 26.1873 48.2262 24.8689V24.9288ZM4.98892 30.9213C2.06209 32.2397 0 34.9363 0 38.0524V48H33.2594V38.0524C33.2594 34.9363 31.1974 32.2397 28.2705 30.9213C25.2772 34.0974 21.2195 35.9551 16.6297 35.9551C12.0399 35.9551 7.98227 34.0375 4.98892 30.9213Z" fill="white"/>
</svg>
